<svg id="Layer_1" data-name="Layer 1" xmlns="http://www.w3.org/2000/svg" viewBox="0 0 300 300"><defs><style>.cls-1{fill:#9bc4bc;}.cls-2{fill:#0d1321;}</style></defs><title>Artboard 1</title><rect class="cls-1" width="300" height="300"/><path class="cls-2" d="M78.74,185.77l40.54-92.15h34.93v5.93a26.6,26.6,0,0,0-8,1.25,8.86,8.86,0,0,0-4.68,3.66,17,17,0,0,0-2.18,7.09,98.14,98.14,0,0,0-.55,11.54v61.13a93.86,93.86,0,0,0,.63,12.31,15.63,15.63,0,0,0,2.41,7,8.4,8.4,0,0,0,5.15,3.27,44.85,44.85,0,0,0,8.81.94v5.93H105.25v-5.93a41.43,41.43,0,0,0,8.81-1,9.42,9.42,0,0,0,5.22-3.2,13.65,13.65,0,0,0,2.5-6.63,85.69,85.69,0,0,0,.62-11.61V113h-1.56L75.31,215.24H71.88L27.13,113h-.62v71.26a94.16,94.16,0,0,0,.62,12.31,15.62,15.62,0,0,0,2.42,7,8.37,8.37,0,0,0,5.14,3.27,44.94,44.94,0,0,0,8.81.94v5.93H0v-5.93a41.43,41.43,0,0,0,8.81-1,9.42,9.42,0,0,0,5.22-3.2,13.65,13.65,0,0,0,2.5-6.63,85.69,85.69,0,0,0,.62-11.61V122a89.46,89.46,0,0,0-.54-10.84,16.2,16.2,0,0,0-2.19-6.78,8.7,8.7,0,0,0-4.75-3.51,34.11,34.11,0,0,0-8.11-1.32V93.62H38.83l39.29,92.15Z"/><path class="cls-2" d="M283,188.89a58.74,58.74,0,0,0,.63,9.59,10.71,10.71,0,0,0,2.42,5.62,9.65,9.65,0,0,0,5.14,2.72,44.94,44.94,0,0,0,8.81.94v5.93H249.48v-5.93a44.94,44.94,0,0,0,8.81-.94,10.47,10.47,0,0,0,5.22-2.65,9.72,9.72,0,0,0,2.5-5.3,52,52,0,0,0,.62-8.89V156.15H203.48v32.74a58.74,58.74,0,0,0,.63,9.59,10.79,10.79,0,0,0,2.41,5.62,9.72,9.72,0,0,0,5.15,2.72,44.85,44.85,0,0,0,8.81.94v5.93H170v-5.93a44.94,44.94,0,0,0,8.81-.94,10.51,10.51,0,0,0,5.22-2.65,9.72,9.72,0,0,0,2.5-5.3,52,52,0,0,0,.62-8.89V117.32a56.29,56.29,0,0,0-.55-8.81,10.77,10.77,0,0,0-2.18-5.3,8.4,8.4,0,0,0-4.75-2.65,53.56,53.56,0,0,0-8.11-1V93.62h47.4v5.93a38,38,0,0,0-8,.93,8.51,8.51,0,0,0-4.68,2.81A11.54,11.54,0,0,0,204,108.9a65.15,65.15,0,0,0-.55,9.51v29.94h63.15v-31a57.74,57.74,0,0,0-.54-8.81,10.78,10.78,0,0,0-2.19-5.3,8.36,8.36,0,0,0-4.75-2.65,53.39,53.39,0,0,0-8.11-1V93.62h47.4v5.93a38,38,0,0,0-8,.93,8.55,8.55,0,0,0-4.68,2.81,11.54,11.54,0,0,0-2.18,5.61,65.15,65.15,0,0,0-.55,9.51Z"/></svg>